<svg xmlns="http://www.w3.org/2000/svg" width="80" height="80" viewBox="0 0 80 80">
  <title>isotype</title>
  <g>
    <path d="M38.7,61.82a27.88,27.88,0,0,1,1.55-5.89,27.19,27.19,0,0,1-6-17.79C27.71,45,9.36,66.11,19,75.73c7.55,7.54,17.94-1.49,18.38-1.87l1.84-1.63A27.21,27.21,0,0,1,38.7,61.82Z" style="fill: #00b2e3"/>
    <path d="M64.43,70.23c-.18.45-.36.89-.55,1.32C64.09,71.09,64.27,70.64,64.43,70.23Z" style="fill: #7fc142"/>
    <path d="M57.33,65.68a26.78,26.78,0,0,1-17.08-9.75,27.88,27.88,0,0,0-1.55,5.89,27.21,27.21,0,0,0,.52,10.41l.05,0,1.6,2c.06.06,6,7.19,13.63,5.64a11.77,11.77,0,0,0,6-3.26,17,17,0,0,0,3.34-5c.19-.43.37-.87.55-1.32a26.91,26.91,0,0,0,1.39-4.68v0A26.78,26.78,0,0,1,57.33,65.68Z" style="fill: #70d44b"/>
    <path d="M57,39.87a26.63,26.63,0,0,1,12.29-1.14,24.83,24.83,0,0,1,2.9.6l1.65-1.87c.39-.44,9.44-10.81,1.89-18.35C66.55,10,47,26.12,39.14,33.29A26.39,26.39,0,0,1,57,39.87Z" style="fill: #f383a0"/>
    <path d="M57,39.87a26.39,26.39,0,0,0-17.86-6.58c-1.5,1.38-2.57,2.43-3,2.9s-1,1-1.89,2a27.19,27.19,0,0,0,6,17.79A27.18,27.18,0,0,1,57,39.87Z" style="fill: #eb5b87"/>
    <path d="M74.12,40.94l-1.94-1.6h0a24.83,24.83,0,0,0-2.9-.6A26.63,26.63,0,0,0,57,39.87a27.16,27.16,0,0,1,9.07,24.4c-.06.42-.16.83-.25,1.25C69.3,65,74,63.08,76.51,60.57a11.77,11.77,0,0,0,3.27-6C81.33,47,74.19,41,74.12,40.94Z" style="fill: #ef6f93"/>
    <path d="M40.25,55.93a26.67,26.67,0,0,0,25.57,9.59c.09-.42.19-.83.25-1.25A27.16,27.16,0,0,0,57,39.87,27.18,27.18,0,0,0,40.25,55.93Z" style="fill: #e6427a"/>
    <path d="M43.43,6.76S36.62-1.6,27.44.27C16.83,2.43,14.76,14.73,14.76,14.73S2.44,16.81.27,27.39c-1.87,9.17,6.5,16,6.5,16S-4.31,55.74,5,65a11.24,11.24,0,0,0,6.56,3.25C12,57,22.64,43.64,29,36.63A38.33,38.33,0,0,1,18.37,34.4v0C17,34,15.86,34,15.28,33.79A2.11,2.11,0,0,1,13.93,31a2.09,2.09,0,0,1,2.85-1.24c.6.22,2.11,1.41,3.08,1.6,4.88,1.51,10.51,2.36,12.19.68h0l.07-.07c1.44-1.44.59-7.39-1-12.4-.36-.91-1.38-2-1.59-2.56a2.08,2.08,0,0,1,1.21-2.85,2.12,2.12,0,0,1,2.84,1.31c.22.58.12,1.67.58,3.07h0a59.84,59.84,0,0,1,2.1,10.72c6.92-6.31,20.59-17.29,32.06-17.71A11.22,11.22,0,0,0,65.14,5C55.85-4.29,43.43,6.76,43.43,6.76Z" style="fill: #a5a8a7"/>
  </g>
</svg>
